<?xml version="1.0" encoding="utf-8"?>
<!-- Generator: Adobe Illustrator 22.1.0, SVG Export Plug-In . SVG Version: 6.00 Build 0)  -->
<svg version="1.1" id="Слой_1" xmlns="http://www.w3.org/2000/svg" xmlns:xlink="http://www.w3.org/1999/xlink" x="0px" y="0px"
	 viewBox="0 0 310 182" style="enable-background:new 0 0 310 182;" xml:space="preserve">
<style type="text/css">
	.st0{fill:#3F3F3F;}
	.st1{fill:#303030;}
</style>
<g>
	<path class="st0" d="M309.6,95.1H60.9v-2h248.7V95.1z M21.3,95.1H0.2v-2h21.1V95.1z"/>
</g>
<g>
	<g>
		<path class="st1" d="M22.9,119.4l12.2-60.7l22-34.9L86.7,54L22.9,119.4z M32,182l3.4-72.8l20.8-21.5L32,182z M101.6,0.5L88.2,51.1
			L58.5,21.7L101.6,0.5z M103.7,0.5l21.7,22.2l-8.2,21L88.3,60.7L103.7,0.5z"/>
	</g>
</g>
<g>
	<path class="st1" d="M122.4,90.4V51h16.5c4.9,0,8.8,1.2,11.7,3.7c2.9,2.5,4.3,5.9,4.3,10.3c0,4.5-1.5,8-4.6,10.5
		c-3,2.5-7.1,3.7-12,3.7h-5.3v11.3L122.4,90.4L122.4,90.4z M133.1,70.6h5.1c1.9,0,3.4-0.5,4.5-1.4c1.1-0.9,1.6-2.2,1.6-3.8
		c0-1.7-0.5-3-1.6-3.9c-1.1-0.9-2.6-1.3-4.5-1.3h-5L133.1,70.6L133.1,70.6z M168.6,90.4V75.6L153.9,51h12.2l7.9,14.4l8-14.4h12
		l-14.7,24.5v14.9L168.6,90.4L168.6,90.4z M196.2,90.4V51h18.2c5.6,0,9.8,1.4,12.6,4.2c2.3,2.3,3.4,5.4,3.4,9.4
		c0,5.8-2.6,9.8-7.9,12.1l9.2,13.7h-12.3l-7.8-11.9h-4.7v11.9L196.2,90.4L196.2,90.4z M206.9,69.9h7.1c1.8,0,3.2-0.4,4.2-1.3
		c1-0.8,1.5-2,1.5-3.5c0-1.5-0.5-2.7-1.5-3.5c-1-0.8-2.4-1.2-4.3-1.2h-7V69.9z M231,90.4l16.4-39.7h10.3l16.4,39.7h-11.5l-2.8-7H245
		l-2.8,7H231L231,90.4z M248.1,74.8h8.6l-4.3-11.2L248.1,74.8z M286.2,90.4V60.5h-11.6V51h33.8v9.6h-11.6v29.9H286.2L286.2,90.4z
		 M60.2,110.4V98.6h4.3c1.8,0,3.3,0.6,4.4,1.7c1.1,1.1,1.7,2.5,1.7,4.2c0,1.7-0.6,3.1-1.7,4.2c-1.1,1.1-2.6,1.7-4.4,1.7
		C64.5,110.4,60.2,110.4,60.2,110.4z M62.2,108.5h2.3c1.2,0,2.2-0.4,2.9-1.1c0.7-0.7,1.1-1.7,1.1-2.9c0-1.2-0.4-2.1-1.1-2.9
		c-0.7-0.7-1.7-1.1-2.9-1.1h-2.3V108.5z M72.8,110.4V98.6h2v11.7H72.8z M83,110.6c-1.8,0-3.2-0.6-4.3-1.7c-1.1-1.1-1.6-2.6-1.6-4.3
		c0-1.7,0.6-3.1,1.7-4.3c1.1-1.2,2.5-1.8,4.2-1.8c1,0,1.8,0.1,2.5,0.4c0.7,0.3,1.4,0.7,2,1.2l-1.3,1.6c-0.5-0.4-1-0.7-1.5-0.9
		c-0.5-0.2-1.1-0.3-1.8-0.3c-1.1,0-1.9,0.4-2.6,1.2c-0.7,0.8-1.1,1.8-1.1,2.9c0,1.2,0.4,2.2,1.1,3c0.7,0.8,1.7,1.2,2.8,1.2
		c1.1,0,2-0.3,2.8-0.9v-2.2h-2.9v-1.8h4.9v4.9C86.4,110,84.8,110.6,83,110.6L83,110.6z M90.2,110.4V98.6h2v11.7H90.2L90.2,110.4z
		 M97.8,110.4v-9.8h-3.6v-1.9h9.3v1.9h-3.6v9.8H97.8L97.8,110.4z M102.8,110.4l5.1-11.8h1.9l5.1,11.8h-2.1l-1.2-2.8H106l-1.2,2.8
		C104.9,110.4,102.8,110.4,102.8,110.4z M106.8,105.7h4l-2-4.7L106.8,105.7z M116.4,110.4V98.6h2v9.9h6v1.9H116.4z M129.8,110.4
		l5.1-11.8h1.9l5.1,11.8h-2.1l-1.2-2.8h-5.4l-1.2,2.8H129.8L129.8,110.4z M133.8,105.7h4l-2-4.7L133.8,105.7z M148.2,110.6
		c-1.8,0-3.2-0.6-4.3-1.7c-1.1-1.1-1.6-2.6-1.6-4.3c0-1.7,0.6-3.1,1.7-4.3c1.1-1.2,2.5-1.8,4.2-1.8c1,0,1.8,0.1,2.5,0.4
		c0.7,0.3,1.4,0.7,2,1.2l-1.3,1.6c-0.5-0.4-1-0.7-1.5-0.9c-0.5-0.2-1.1-0.3-1.8-0.3c-1.1,0-1.9,0.4-2.6,1.2
		c-0.7,0.8-1.1,1.8-1.1,2.9c0,1.2,0.4,2.2,1.1,3c0.7,0.8,1.7,1.2,2.8,1.2c1.1,0,2-0.3,2.8-0.9v-2.2h-2.9v-1.8h4.9v4.9
		C151.6,110,150,110.6,148.2,110.6z M155.3,110.4V98.6h8.5v1.8h-6.5v3.1h5.8v1.8h-5.8v3.2h6.6v1.8
		C163.9,110.4,155.3,110.4,155.3,110.4z M165.9,110.4V98.6h1.9l6.2,8.1v-8.1h2v11.7h-1.7l-6.3-8.3v8.3
		C167.9,110.4,165.9,110.4,165.9,110.4z M183.9,110.6c-1.7,0-3.1-0.6-4.2-1.8c-1.1-1.2-1.7-2.6-1.7-4.3c0-1.7,0.6-3.1,1.7-4.3
		c1.1-1.2,2.5-1.8,4.2-1.8c1,0,1.8,0.2,2.5,0.5c0.7,0.3,1.4,0.8,2,1.4l-1.3,1.5c-1-1-2.1-1.5-3.2-1.5c-1.1,0-2,0.4-2.7,1.2
		c-0.7,0.8-1.1,1.8-1.1,3c0,1.2,0.4,2.1,1.1,3s1.6,1.2,2.7,1.2c0.7,0,1.2-0.1,1.7-0.4c0.5-0.3,1-0.6,1.6-1.1l1.3,1.3
		c-0.6,0.7-1.3,1.2-2.1,1.6C185.8,110.4,184.9,110.6,183.9,110.6L183.9,110.6z M193.6,110.4v-4.6l-4.6-7.1h2.4l3.2,5.2l3.2-5.2h2.3
		l-4.6,7.1v4.7H193.6z"/>
</g>
</svg>
