<?xml version="1.0" standalone="no"?>
<!DOCTYPE svg PUBLIC "-//W3C//DTD SVG 20010904//EN"
 "http://www.w3.org/TR/2001/REC-SVG-20010904/DTD/svg10.dtd">
<svg version="1.0" xmlns="http://www.w3.org/2000/svg"
 width="814.000000pt" height="814.000000pt" viewBox="0 0 814.000000 814.000000"
 preserveAspectRatio="xMidYMid meet">
<metadata>
Created by potrace 1.11, written by Peter Selinger 2001-2013
</metadata>
<g transform="translate(0.000000,814.000000) scale(0.100000,-0.100000)"
fill="#000000" stroke="none">
<path d="M4556 6844 c-440 -217 -801 -396 -803 -398 -4 -4 1094 -1099 1105
-1103 4 -2 110 388 236 865 126 477 240 904 252 950 13 45 20 82 16 81 -4 0
-367 -178 -806 -395z"/>
<path d="M5157 6120 c-159 -617 -286 -1124 -283 -1127 3 -3 247 136 543 309
l537 315 154 392 153 393 -35 42 c-20 22 -203 211 -408 419 l-373 379 -288
-1122z"/>
<path d="M3305 5753 c-215 -339 -402 -637 -416 -662 -23 -39 -62 -220 -254
-1174 -124 -621 -225 -1130 -223 -1132 5 -4 2381 2429 2386 2443 2 7 -229 250
-514 540 -284 290 -534 544 -554 565 l-36 38 -389 -618z"/>
<path d="M3264 3559 c-354 -366 -389 -405 -392 -438 -8 -123 -122 -2639 -120
-2654 2 -10 176 653 387 1475 211 821 415 1611 452 1756 37 144 66 262 64 262
-1 0 -178 -181 -391 -401z"/>
</g>
</svg>
